<svg version="1.1" id="Layer_1" xmlns="http://www.w3.org/2000/svg" xmlns:xlink="http://www.w3.org/1999/xlink" x="0px" y="0px"
	 width="100%" viewBox="0 0 5409 1422" enable-background="new 0 0 5409 1422" xml:space="preserve">
<path fill="#000000" opacity="1.000000" stroke="none" 
	d="
M2552.000000,1424.000000 
	C2551.111084,1424.000000 2550.222168,1424.000000 2548.208984,1423.381958 
	C2542.610596,1421.984741 2538.067627,1420.477295 2534.000000,1424.000000 
	C1753.271484,1424.000000 972.543030,1424.000000 190.358063,1423.406250 
	C184.457306,1422.640381 180.013016,1422.468262 174.718613,1422.308716 
	C167.972076,1421.473145 161.995071,1420.991943 156.192322,1419.717407 
	C118.551704,1411.449341 85.840874,1393.704102 59.000626,1366.207886 
	C29.952526,1336.449585 11.573450,1300.897095 5.673608,1259.368042 
	C5.336199,1256.993042 4.584450,1255.645996 2.000000,1256.000000 
	C2.000000,897.271484 2.000000,538.543030 2.706781,178.843292 
	C4.014228,175.139969 4.614894,172.407883 5.423811,168.862274 
	C5.834825,166.072021 5.914065,164.073517 6.258149,162.121704 
	C20.143776,83.355957 82.721382,20.458921 161.665894,5.728398 
	C165.218796,5.065449 168.560120,3.268671 172.000000,2.000001 
	C963.395203,2.000000 1754.790405,2.000000 2547.358643,2.767017 
	C2598.521484,9.625648 2640.398682,31.577896 2673.505615,69.302887 
	C2706.446777,106.838554 2721.580811,151.478165 2721.599365,201.097580 
	C2721.725830,536.409546 2721.678711,871.721497 2721.609375,1207.033447 
	C2721.606934,1218.641113 2720.747559,1230.247437 2720.345703,1241.856445 
	C2719.325195,1271.335083 2711.008057,1298.800415 2696.492432,1324.263550 
	C2667.203369,1375.641724 2623.452637,1407.585693 2565.617920,1420.203369 
	C2561.021484,1421.206299 2556.536621,1422.722534 2552.000000,1424.000000 
M1168.159180,899.171936 
	C1191.517700,837.445007 1202.495605,773.219543 1205.417847,707.603088 
	C1206.523804,682.767273 1204.965454,657.799988 1204.299683,632.901306 
	C1203.446167,600.976990 1198.690063,569.523315 1191.774170,538.399414 
	C1178.279053,477.666107 1154.701782,421.344604 1117.378296,371.236298 
	C1079.352905,320.185608 1031.344604,282.027496 971.651062,258.952209 
	C926.803162,241.615677 880.139587,233.992203 832.378113,233.815735 
	C711.719666,233.369888 591.058411,233.663956 470.398315,233.695297 
	C467.873322,233.695953 465.348419,234.105042 462.843445,234.321869 
	C462.843445,538.546021 462.843445,842.041077 462.843445,1146.332031 
	C466.936157,1146.332031 470.540039,1146.331909 474.143890,1146.331909 
	C590.470947,1146.331909 706.797974,1146.340820 823.125000,1146.325928 
	C852.386902,1146.322144 881.420898,1143.899048 910.172058,1138.245117 
	C996.911316,1121.188354 1065.345947,1076.292969 1115.507324,1003.510986 
	C1137.523682,971.566223 1154.101807,936.865662 1168.159180,899.171936 
M1927.436035,336.204865 
	C1959.261475,330.206696 1991.255127,328.954895 2023.561035,331.498535 
	C2042.163818,332.963226 2060.452148,335.737671 2078.486084,340.247467 
	C2115.059814,349.393555 2147.320557,366.623901 2173.892334,393.514648 
	C2200.475830,420.417328 2219.539307,452.153168 2231.555176,488.026611 
	C2235.220215,498.969147 2238.304932,510.105957 2241.655273,521.152649 
	C2281.329590,521.152649 2320.517090,521.152649 2360.315918,521.152649 
	C2359.649658,504.979156 2356.392578,489.806702 2352.599365,474.741913 
	C2340.612793,427.133759 2317.733643,385.170929 2286.250488,347.759125 
	C2263.649414,320.902069 2238.580078,296.759125 2208.635742,278.034149 
	C2152.210938,242.750336 2089.590820,228.563492 2024.198975,224.488846 
	C1998.335205,222.877258 1972.406616,223.209167 1946.476562,225.485428 
	C1922.291260,227.608521 1898.351562,231.004852 1874.889648,236.964294 
	C1802.814331,255.271805 1741.068481,291.026123 1690.879395,346.428009 
	C1665.482666,374.462585 1643.968628,405.084045 1626.506836,438.532593 
	C1590.520020,507.466400 1574.414673,581.671326 1570.640625,658.671143 
	C1569.179565,688.482361 1571.084229,718.467468 1571.693237,748.368591 
	C1572.308960,778.602722 1576.468628,808.468262 1581.785400,838.183838 
	C1591.261963,891.146667 1607.251953,941.906799 1632.919678,989.411865 
	C1653.196289,1026.939331 1678.966309,1060.265015 1710.539917,1088.834351 
	C1738.785889,1114.392578 1770.295532,1135.243286 1805.200073,1150.900757 
	C1846.831299,1169.575562 1890.475586,1180.219727 1935.815674,1183.444946 
	C1954.252441,1184.756348 1972.736572,1185.536255 1991.410156,1184.760742 
	C2028.424805,1183.223389 2064.689453,1178.401489 2100.339355,1168.445801 
	C2166.212402,1150.050171 2221.641846,1114.793701 2267.160889,1064.113037 
	C2311.276123,1014.994873 2340.922119,957.972839 2357.191650,893.995789 
	C2362.794189,871.964050 2367.044434,849.701416 2369.255127,826.651306 
	C2329.267578,826.651306 2289.994629,826.651306 2250.339844,826.651306 
	C2249.457031,830.193542 2248.495361,833.672791 2247.726807,837.194275 
	C2239.120850,876.635010 2226.831787,914.815186 2207.539062,950.407898 
	C2187.561768,987.263672 2160.858643,1018.213928 2125.356201,1041.108154 
	C2085.579590,1066.758789 2041.203613,1076.222412 1994.735962,1077.531250 
	C1971.167603,1078.195312 1947.676758,1075.922852 1924.434204,1071.786377 
	C1897.455200,1066.984985 1871.631226,1058.670044 1847.374878,1045.762329 
	C1802.079102,1021.658691 1769.831421,984.885986 1745.569458,940.488342 
	C1713.886841,882.511719 1700.301514,819.606506 1696.535278,754.352295 
	C1694.754517,723.497559 1695.387451,692.573975 1697.430420,661.634216 
	C1699.687988,627.446655 1704.078857,593.682556 1712.039429,560.402039 
	C1726.890869,498.312897 1753.793823,442.921448 1802.007080,399.405090 
	C1819.141846,383.939484 1837.842285,370.806793 1858.268188,360.122131 
	C1879.608765,348.959015 1902.370972,341.777740 1927.436035,336.204865 
z"/>
<path fill="#FFFFFF" opacity="1.000000" stroke="none" 
	d="
M2552.937256,1424.000000 
	C2556.536621,1422.722534 2561.021484,1421.206299 2565.617920,1420.203369 
	C2623.452637,1407.585693 2667.203369,1375.641724 2696.492432,1324.263550 
	C2711.008057,1298.800415 2719.325195,1271.335083 2720.345703,1241.856445 
	C2720.747559,1230.247437 2721.606934,1218.641113 2721.609375,1207.033447 
	C2721.678711,871.721497 2721.725830,536.409546 2721.599365,201.097580 
	C2721.580811,151.478165 2706.446777,106.838554 2673.505615,69.302887 
	C2640.398682,31.577896 2598.521484,9.625648 2548.265869,2.767017 
	C3502.453369,2.000000 4456.906738,2.000000 5412.000000,2.000000 
	C5412.000000,351.374847 5412.000000,700.750122 5411.072266,1051.209351 
	C5227.592285,1052.293335 5045.039062,1052.293335 4862.268555,1052.293335 
	C4862.268555,949.021301 4862.268555,846.598206 4862.268555,743.468140 
	C5029.046875,743.468140 5195.229004,743.468140 5361.874023,743.468140 
	C5361.874023,707.604126 5361.874023,672.448120 5361.874023,636.233521 
	C5195.055664,636.233521 5028.634277,636.233521 4862.381836,636.233521 
	C4862.381836,543.739441 4862.381836,452.305145 4862.381836,361.225525 
	C4863.379395,360.734039 4863.666504,360.469055 4863.953125,360.468964 
	C5042.271973,360.411163 5220.590332,360.371704 5398.909180,360.317047 
	C5399.897949,360.316742 5400.891602,360.135529 5401.872559,359.976105 
	C5402.158691,359.929596 5402.440918,359.699615 5402.668457,359.492310 
	C5402.911621,359.271088 5403.088379,358.977203 5403.055176,359.019775 
	C5403.055176,321.869751 5403.055176,285.027374 5403.055176,248.311752 
	C5181.642090,248.311752 4960.846191,248.311752 4740.088867,248.311752 
	C4737.895508,286.597748 4738.974609,1153.030884 4741.309082,1161.677734 
	C4745.146973,1161.677734 4749.110352,1161.677734 4753.073242,1161.677734 
	C4968.723633,1161.677734 5184.373535,1161.675903 5400.023926,1161.691040 
	C5404.016113,1161.691406 5408.007812,1161.892578 5412.000000,1162.000000 
	C5412.000000,1249.308838 5412.000000,1336.617798 5412.000000,1424.000000 
	C4459.291504,1424.000000 3506.583008,1424.000000 2552.937256,1424.000000 
M4261.199707,461.996490 
	C4251.592285,444.167786 4242.881348,425.781372 4232.203613,408.618317 
	C4203.851562,363.045685 4167.261719,325.338196 4121.121582,297.458771 
	C4065.117676,263.619141 4003.641602,248.352310 3938.838135,247.906479 
	C3815.536865,247.058197 3692.225830,247.660583 3568.918701,247.660583 
	C3565.681396,247.660583 3562.444092,247.660583 3558.892578,247.660583 
	C3558.892578,552.697205 3558.892578,856.760681 3558.892578,1161.676514 
	C3563.035400,1161.676514 3566.625488,1161.676392 3570.215576,1161.676392 
	C3686.524170,1161.676392 3802.832764,1161.717041 3919.141357,1161.617920 
	C3931.746826,1161.607178 3944.349365,1160.710938 3956.957275,1160.362915 
	C3980.954590,1159.700439 4004.437744,1155.503296 4027.637695,1149.748291 
	C4093.582275,1133.390747 4148.767578,1099.341797 4192.697754,1047.550903 
	C4226.644531,1007.530457 4250.222168,961.524719 4267.950684,912.413635 
	C4289.393555,853.013489 4301.251953,791.677063 4303.619141,728.583191 
	C4305.064941,690.042908 4304.893066,651.570740 4300.544434,613.094788 
	C4294.688477,561.277588 4282.461914,511.292358 4261.199707,461.996490 
M2976.329346,732.999878 
	C2976.329346,875.564148 2976.329346,1018.128357 2976.329346,1161.113281 
	C3018.773193,1161.113281 3060.225098,1161.113281 3101.738281,1161.113281 
	C3101.738281,950.416321 3101.738281,740.284058 3101.738281,530.397217 
	C3059.692627,530.397217 3018.252686,530.397217 2976.329346,530.397217 
	C2976.329346,597.755554 2976.329346,664.377686 2976.329346,732.999878 
M2962.981201,260.368835 
	C2952.600342,293.837158 2958.647949,323.303864 2984.421875,347.892120 
	C3009.843750,372.144653 3049.513184,376.815521 3080.278809,358.154266 
	C3109.800293,340.247833 3122.744385,313.017151 3119.493652,278.958862 
	C3115.837646,240.653503 3084.717041,210.859009 3046.514648,207.719742 
	C3006.509521,204.432327 2975.098633,228.143845 2962.981201,260.368835 
z"/>
<path fill="#010101" opacity="1.000000" stroke="none" 
	d="
M5412.000000,1161.062744 
	C5408.007812,1161.892578 5404.016113,1161.691406 5400.023926,1161.691040 
	C5184.373535,1161.675903 4968.723633,1161.677734 4753.073242,1161.677734 
	C4749.110352,1161.677734 4745.146973,1161.677734 4741.309082,1161.677734 
	C4738.974609,1153.030884 4737.895508,286.597748 4740.088867,248.311752 
	C4960.846191,248.311752 5181.642090,248.311752 5403.055176,248.311752 
	C5403.055176,285.027374 5403.055176,321.869751 5403.055176,359.019775 
	C5403.088379,358.977203 5402.911621,359.271088 5402.668457,359.492310 
	C5402.440918,359.699615 5402.158691,359.929596 5401.872559,359.976105 
	C5400.891602,360.135529 5399.897949,360.316742 5398.909180,360.317047 
	C5220.590332,360.371704 5042.271973,360.411163 4863.953125,360.468964 
	C4863.666504,360.469055 4863.379395,360.734039 4862.381836,361.225525 
	C4862.381836,452.305145 4862.381836,543.739441 4862.381836,636.233521 
	C5028.634277,636.233521 5195.055664,636.233521 5361.874023,636.233521 
	C5361.874023,672.448120 5361.874023,707.604126 5361.874023,743.468140 
	C5195.229004,743.468140 5029.046875,743.468140 4862.268555,743.468140 
	C4862.268555,846.598206 4862.268555,949.021301 4862.268555,1052.293335 
	C5045.039062,1052.293335 5227.592285,1052.293335 5411.072266,1052.146729 
	C5412.000000,1088.041748 5412.000000,1124.083618 5412.000000,1161.062744 
z"/>
<path fill="#FDFDFD" opacity="1.000000" stroke="none" 
	d="
M171.062683,2.000001 
	C168.560120,3.268671 165.218796,5.065449 161.665894,5.728398 
	C82.721382,20.458921 20.143776,83.355957 6.258149,162.121704 
	C5.914065,164.073517 5.834825,166.072021 4.878170,168.825562 
	C3.416186,169.734924 2.708094,169.867462 2.000001,170.000000 
	C2.000000,114.145340 2.000000,58.290680 2.000000,2.000000 
	C58.041035,2.000000 114.083199,2.000000 171.062683,2.000001 
z"/>
<path fill="#FDFDFD" opacity="1.000000" stroke="none" 
	d="
M2.000000,1256.937256 
	C4.584450,1255.645996 5.336199,1256.993042 5.673608,1259.368042 
	C11.573450,1300.897095 29.952526,1336.449585 59.000626,1366.207886 
	C85.840874,1393.704102 118.551704,1411.449341 156.192322,1419.717407 
	C161.995071,1420.991943 167.972076,1421.473145 174.791733,1422.743408 
	C175.714966,1423.165649 176.000000,1424.000000 176.000000,1424.000000 
	C118.148758,1424.000000 60.297523,1424.000000 2.000000,1424.000000 
	C2.000000,1368.625732 2.000000,1313.250122 2.000000,1256.937256 
z"/>
<path fill="#ABABAB" opacity="1.000000" stroke="none" 
	d="
M2.000001,170.799988 
	C2.708094,169.867462 3.416186,169.734924 4.669919,169.639099 
	C4.614894,172.407883 4.014228,175.139969 2.706781,177.936020 
	C2.000000,175.866653 2.000000,173.733322 2.000001,170.799988 
z"/>
<path fill="#414141" opacity="1.000000" stroke="none" 
	d="
M176.875000,1424.000000 
	C176.000000,1424.000000 175.714966,1423.165649 175.641846,1422.730957 
	C180.013016,1422.468262 184.457306,1422.640381 189.450806,1423.406250 
	C185.916672,1424.000000 181.833328,1424.000000 176.875000,1424.000000 
z"/>
<path fill="#3D3D3D" opacity="1.000000" stroke="none" 
	d="
M2534.875000,1424.000000 
	C2538.067627,1420.477295 2542.610596,1421.984741 2547.542480,1423.381958 
	C2543.916748,1424.000000 2539.833252,1424.000000 2534.875000,1424.000000 
z"/>
<path fill="#FEFEFE" opacity="1.000000" stroke="none" 
	d="
M1167.946777,899.919128 
	C1154.101807,936.865662 1137.523682,971.566223 1115.507324,1003.510986 
	C1065.345947,1076.292969 996.911316,1121.188354 910.172058,1138.245117 
	C881.420898,1143.899048 852.386902,1146.322144 823.125000,1146.325928 
	C706.797974,1146.340820 590.470947,1146.331909 474.143890,1146.331909 
	C470.540039,1146.331909 466.936157,1146.332031 462.843445,1146.332031 
	C462.843445,842.041077 462.843445,538.546021 462.843445,234.321869 
	C465.348419,234.105042 467.873322,233.695953 470.398315,233.695297 
	C591.058411,233.663956 711.719666,233.369888 832.378113,233.815735 
	C880.139587,233.992203 926.803162,241.615677 971.651062,258.952209 
	C1031.344604,282.027496 1079.352905,320.185608 1117.378296,371.236298 
	C1154.701782,421.344604 1178.279053,477.666107 1191.774170,538.399414 
	C1198.690063,569.523315 1203.446167,600.976990 1204.299683,632.901306 
	C1204.965454,657.799988 1206.523804,682.767273 1205.417847,707.603088 
	C1202.495605,773.219543 1191.517700,837.445007 1167.946777,899.919128 
M665.000122,339.667267 
	C639.094238,339.667267 613.188354,339.667267 586.818237,339.667267 
	C586.818237,573.920532 586.818237,807.288330 586.818237,1041.669678 
	C589.855652,1041.669678 592.423767,1041.681885 594.991821,1041.667725 
	C675.229370,1041.224121 755.470093,1041.059570 835.702576,1040.161499 
	C859.978394,1039.889771 883.919250,1035.595337 906.869263,1027.328613 
	C952.909180,1010.744873 988.374023,980.659302 1015.744507,940.602478 
	C1036.582886,910.105469 1050.176880,876.351929 1060.186768,840.967834 
	C1070.786621,803.497803 1077.065308,765.214111 1079.290405,726.496765 
	C1080.772217,700.712524 1079.451904,674.694702 1078.136597,648.844971 
	C1077.078003,628.039246 1075.050781,607.188721 1071.862305,586.604553 
	C1064.702881,540.385498 1051.457642,496.023682 1028.234375,455.043945 
	C1006.175354,416.118561 976.105347,385.531738 935.466797,366.020172 
	C898.969055,348.496765 860.141174,340.378540 819.927063,339.834106 
	C768.960022,339.144135 717.976624,339.667267 665.000122,339.667267 
z"/>
<path fill="#FEFEFE" opacity="1.000000" stroke="none" 
	d="
M1926.590454,336.282410 
	C1902.370972,341.777740 1879.608765,348.959015 1858.268188,360.122131 
	C1837.842285,370.806793 1819.141846,383.939484 1802.007080,399.405090 
	C1753.793823,442.921448 1726.890869,498.312897 1712.039429,560.402039 
	C1704.078857,593.682556 1699.687988,627.446655 1697.430420,661.634216 
	C1695.387451,692.573975 1694.754517,723.497559 1696.535278,754.352295 
	C1700.301514,819.606506 1713.886841,882.511719 1745.569458,940.488342 
	C1769.831421,984.885986 1802.079102,1021.658691 1847.374878,1045.762329 
	C1871.631226,1058.670044 1897.455200,1066.984985 1924.434204,1071.786377 
	C1947.676758,1075.922852 1971.167603,1078.195312 1994.735962,1077.531250 
	C2041.203613,1076.222412 2085.579590,1066.758789 2125.356201,1041.108154 
	C2160.858643,1018.213928 2187.561768,987.263672 2207.539062,950.407898 
	C2226.831787,914.815186 2239.120850,876.635010 2247.726807,837.194275 
	C2248.495361,833.672791 2249.457031,830.193542 2250.339844,826.651306 
	C2289.994629,826.651306 2329.267578,826.651306 2369.255127,826.651306 
	C2367.044434,849.701416 2362.794189,871.964050 2357.191650,893.995789 
	C2340.922119,957.972839 2311.276123,1014.994873 2267.160889,1064.113037 
	C2221.641846,1114.793701 2166.212402,1150.050171 2100.339355,1168.445801 
	C2064.689453,1178.401489 2028.424805,1183.223389 1991.410156,1184.760742 
	C1972.736572,1185.536255 1954.252441,1184.756348 1935.815674,1183.444946 
	C1890.475586,1180.219727 1846.831299,1169.575562 1805.200073,1150.900757 
	C1770.295532,1135.243286 1738.785889,1114.392578 1710.539917,1088.834351 
	C1678.966309,1060.265015 1653.196289,1026.939331 1632.919678,989.411865 
	C1607.251953,941.906799 1591.261963,891.146667 1581.785400,838.183838 
	C1576.468628,808.468262 1572.308960,778.602722 1571.693237,748.368591 
	C1571.084229,718.467468 1569.179565,688.482361 1570.640625,658.671143 
	C1574.414673,581.671326 1590.520020,507.466400 1626.506836,438.532593 
	C1643.968628,405.084045 1665.482666,374.462585 1690.879395,346.428009 
	C1741.068481,291.026123 1802.814331,255.271805 1874.889648,236.964294 
	C1898.351562,231.004852 1922.291260,227.608521 1946.476562,225.485428 
	C1972.406616,223.209167 1998.335205,222.877258 2024.198975,224.488846 
	C2089.590820,228.563492 2152.210938,242.750336 2208.635742,278.034149 
	C2238.580078,296.759125 2263.649414,320.902069 2286.250488,347.759125 
	C2317.733643,385.170929 2340.612793,427.133759 2352.599365,474.741913 
	C2356.392578,489.806702 2359.649658,504.979156 2360.315918,521.152649 
	C2320.517090,521.152649 2281.329590,521.152649 2241.655273,521.152649 
	C2238.304932,510.105957 2235.220215,498.969147 2231.555176,488.026611 
	C2219.539307,452.153168 2200.475830,420.417328 2173.892334,393.514648 
	C2147.320557,366.623901 2115.059814,349.393555 2078.486084,340.247467 
	C2060.452148,335.737671 2042.163818,332.963226 2023.561035,331.498535 
	C1991.255127,328.954895 1959.261475,330.206696 1926.590454,336.282410 
z"/>
<path fill="#010101" opacity="1.000000" stroke="none" 
	d="
M4261.478516,462.704346 
	C4282.461914,511.292358 4294.688477,561.277588 4300.544434,613.094788 
	C4304.893066,651.570740 4305.064941,690.042908 4303.619141,728.583191 
	C4301.251953,791.677063 4289.393555,853.013489 4267.950684,912.413635 
	C4250.222168,961.524719 4226.644531,1007.530457 4192.697754,1047.550903 
	C4148.767578,1099.341797 4093.582275,1133.390747 4027.637695,1149.748291 
	C4004.437744,1155.503296 3980.954590,1159.700439 3956.957275,1160.362915 
	C3944.349365,1160.710938 3931.746826,1161.607178 3919.141357,1161.617920 
	C3802.832764,1161.717041 3686.524170,1161.676392 3570.215576,1161.676392 
	C3566.625488,1161.676392 3563.035400,1161.676514 3558.892578,1161.676514 
	C3558.892578,856.760681 3558.892578,552.697205 3558.892578,247.660583 
	C3562.444092,247.660583 3565.681396,247.660583 3568.918701,247.660583 
	C3692.225830,247.660583 3815.536865,247.058197 3938.838135,247.906479 
	C4003.641602,248.352310 4065.117676,263.619141 4121.121582,297.458771 
	C4167.261719,325.338196 4203.851562,363.045685 4232.203613,408.618317 
	C4242.881348,425.781372 4251.592285,444.167786 4261.478516,462.704346 
M4073.759521,998.764404 
	C4087.262695,987.721558 4098.070312,974.214355 4108.255371,960.245422 
	C4129.029297,931.752258 4143.155273,899.974182 4153.489746,866.418030 
	C4166.536133,824.055664 4174.341797,780.637817 4176.075195,736.442993 
	C4177.873047,690.613281 4176.214844,644.807007 4168.342285,599.407959 
	C4160.690918,555.283508 4148.206055,512.856384 4126.459961,473.414764 
	C4102.205566,429.423462 4067.974365,396.586273 4021.390137,376.766815 
	C3983.109375,360.480103 3942.782227,355.073395 3901.856689,354.570770 
	C3832.553223,353.719757 3763.231689,354.337006 3693.917725,354.337006 
	C3691.019531,354.337006 3688.121582,354.337006 3684.825684,354.337006 
	C3684.825684,588.491333 3684.825684,821.576111 3684.825684,1055.663208 
	C3688.847900,1055.663208 3692.430176,1055.663208 3696.012451,1055.663208 
	C3755.995850,1055.663208 3815.981445,1055.980591 3875.961182,1055.510864 
	C3900.827881,1055.316162 3925.736084,1054.135376 3950.528320,1052.174683 
	C3997.035645,1048.496338 4037.876465,1030.912598 4073.759521,998.764404 
z"/>
<path fill="#010101" opacity="1.000000" stroke="none" 
	d="
M2976.329346,731.999817 
	C2976.329346,664.377686 2976.329346,597.755554 2976.329346,530.397217 
	C3018.252686,530.397217 3059.692627,530.397217 3101.738281,530.397217 
	C3101.738281,740.284058 3101.738281,950.416321 3101.738281,1161.113281 
	C3060.225098,1161.113281 3018.773193,1161.113281 2976.329346,1161.113281 
	C2976.329346,1018.128357 2976.329346,875.564148 2976.329346,731.999817 
z"/>
<path fill="#020202" opacity="1.000000" stroke="none" 
	d="
M2963.310547,259.658752 
	C2975.098633,228.143845 3006.509521,204.432327 3046.514648,207.719742 
	C3084.717041,210.859009 3115.837646,240.653503 3119.493652,278.958862 
	C3122.744385,313.017151 3109.800293,340.247833 3080.278809,358.154266 
	C3049.513184,376.815521 3009.843750,372.144653 2984.421875,347.892120 
	C2958.647949,323.303864 2952.600342,293.837158 2963.310547,259.658752 
z"/>
<path fill="#010101" opacity="1.000000" stroke="none" 
	d="
M666.000183,339.667267 
	C717.976624,339.667267 768.960022,339.144135 819.927063,339.834106 
	C860.141174,340.378540 898.969055,348.496765 935.466797,366.020172 
	C976.105347,385.531738 1006.175354,416.118561 1028.234375,455.043945 
	C1051.457642,496.023682 1064.702881,540.385498 1071.862305,586.604553 
	C1075.050781,607.188721 1077.078003,628.039246 1078.136597,648.844971 
	C1079.451904,674.694702 1080.772217,700.712524 1079.290405,726.496765 
	C1077.065308,765.214111 1070.786621,803.497803 1060.186768,840.967834 
	C1050.176880,876.351929 1036.582886,910.105469 1015.744507,940.602478 
	C988.374023,980.659302 952.909180,1010.744873 906.869263,1027.328613 
	C883.919250,1035.595337 859.978394,1039.889771 835.702576,1040.161499 
	C755.470093,1041.059570 675.229370,1041.224121 594.991821,1041.667725 
	C592.423767,1041.681885 589.855652,1041.669678 586.818237,1041.669678 
	C586.818237,807.288330 586.818237,573.920532 586.818237,339.667267 
	C613.188354,339.667267 639.094238,339.667267 666.000183,339.667267 
z"/>
<path fill="#FEFEFE" opacity="1.000000" stroke="none" 
	d="
M4073.256836,999.265259 
	C4037.876465,1030.912598 3997.035645,1048.496338 3950.528320,1052.174683 
	C3925.736084,1054.135376 3900.827881,1055.316162 3875.961182,1055.510864 
	C3815.981445,1055.980591 3755.995850,1055.663208 3696.012451,1055.663208 
	C3692.430176,1055.663208 3688.847900,1055.663208 3684.825684,1055.663208 
	C3684.825684,821.576111 3684.825684,588.491333 3684.825684,354.337006 
	C3688.121582,354.337006 3691.019531,354.337006 3693.917725,354.337006 
	C3763.231689,354.337006 3832.553223,353.719757 3901.856689,354.570770 
	C3942.782227,355.073395 3983.109375,360.480103 4021.390137,376.766815 
	C4067.974365,396.586273 4102.205566,429.423462 4126.459961,473.414764 
	C4148.206055,512.856384 4160.690918,555.283508 4168.342285,599.407959 
	C4176.214844,644.807007 4177.873047,690.613281 4176.075195,736.442993 
	C4174.341797,780.637817 4166.536133,824.055664 4153.489746,866.418030 
	C4143.155273,899.974182 4129.029297,931.752258 4108.255371,960.245422 
	C4098.070312,974.214355 4087.262695,987.721558 4073.256836,999.265259 
z"/>
</svg>